<svg xmlns="http://www.w3.org/2000/svg" viewBox="0 0 1200 320" role="img" aria-label="FCAR logo">
  <defs>
    <linearGradient id="fcarGradient" x1="0" y1="0" x2="1" y2="1">
      <stop offset="0%" stop-color="#0F6CBD"/>
      <stop offset="100%" stop-color="#0A4F8A"/>
    </linearGradient>
  </defs>

  <!-- Icon -->
  <g transform="translate(30,30)">
    <rect x="0" y="0" width="260" height="260" rx="56" fill="url(#fcarGradient)"/>
    <path d="M46 146c14-39 42-65 84-74h61c26 0 49 11 65 31l18 23v30h-20c-6 19-24 33-45 33-21 0-39-13-45-31h-51c-6 18-24 31-45 31-21 0-39-14-45-33H24v-11l22-29z" fill="#ffffff" opacity=".95"/>
    <circle cx="85" cy="162" r="18" fill="#0F6CBD"/>
    <circle cx="85" cy="162" r="10" fill="#ffffff"/>
    <circle cx="200" cy="162" r="18" fill="#0F6CBD"/>
    <circle cx="200" cy="162" r="10" fill="#ffffff"/>
    <path d="M84 108h112c14 0 22 5 29 15l8 11H68l7-10c4-6 7-9 9-10z" fill="#EAF4FF"/>
    <rect x="150" y="128" width="45" height="6" rx="3" fill="#D4E8FF"/>
    <rect x="86" y="128" width="45" height="6" rx="3" fill="#D4E8FF"/>
  </g>

  <!-- Wordmark -->
  <g fill="#0A1F33" transform="translate(340,0)">
    <text x="0" y="190" font-family="Segoe UI, Arial, sans-serif" font-size="142" font-weight="800" letter-spacing="3">FCAR</text>
    <text x="8" y="244" font-family="Segoe UI, Arial, sans-serif" font-size="34" font-weight="600" fill="#4B6072" letter-spacing="1.4">SMART CAR SHOWROOM PLATFORM</text>
  </g>
</svg>
