<svg xmlns="http://www.w3.org/2000/svg" viewBox="0 0 256 256" role="img" aria-label="FCAR icon logo">
  <defs>
    <linearGradient id="g2" x1="0" y1="0" x2="1" y2="1">
      <stop offset="0%" stop-color="#0F6CBD"/>
      <stop offset="100%" stop-color="#0A4F8A"/>
    </linearGradient>
  </defs>

  <rect x="6" y="6" width="244" height="244" rx="54" fill="url(#g2)"/>
  <path d="M34 142c12-35 37-59 75-68h54c23 0 43 10 58 29l16 21v27h-18c-5 17-21 30-39 30-18 0-34-12-39-28h-45c-5 16-21 28-39 28-18 0-34-13-39-30H15v-10l19-26z" fill="#fff" opacity=".95"/>
  <circle cx="76" cy="157" r="17" fill="#0F6CBD"/>
  <circle cx="76" cy="157" r="10" fill="#fff"/>
  <circle cx="181" cy="157" r="17" fill="#0F6CBD"/>
  <circle cx="181" cy="157" r="10" fill="#fff"/>
</svg>
