<svg xmlns="http://www.w3.org/2000/svg" viewBox="0 0 64 64" role="img" aria-label="FCAR logo">
  <defs>
    <linearGradient id="g" x1="0" y1="0" x2="1" y2="1">
      <stop offset="0" stop-color="#0f6cbd"/>
      <stop offset="1" stop-color="#0a4f8a"/>
    </linearGradient>
  </defs>
  <rect x="2" y="2" width="60" height="60" rx="14" fill="url(#g)"/>
  <path d="M14 39c3-9 9-15 18-17h14c5 0 9 2 12 6l4 6v5h-5c-1 4-4 7-8 7-4 0-7-2-8-6H29c-1 4-4 6-8 6-4 0-7-3-8-7H8v-3l6-7zm9 2a3.7 3.7 0 1 0 0 .1zm26 0a3.7 3.7 0 1 0 0 .1z" fill="#fff" opacity=".95"/>
  <text x="11" y="19" font-size="10" font-family="Segoe UI, Arial, sans-serif" fill="#eaf4ff" font-weight="700">FCAR</text>
</svg>
